<?xml version="1.0" encoding="iso-8859-1"?>
<!-- Uploaded to: SVG Repo, www.svgrepo.com, Generator: SVG Repo Mixer Tools -->
<svg fill="currentColor" height="800px" width="800px" version="1.1" id="Layer_1" xmlns="http://www.w3.org/2000/svg" xmlns:xlink="http://www.w3.org/1999/xlink"
	 viewBox="0 0 511.893 511.893" xml:space="preserve">
<g>
	<g>
		<path d="M301.259,427.84c-7.36-0.427-14.976-0.747-22.741-0.96c-0.107,0-0.213,0-0.299,0c-5.781,0-10.496,4.587-10.667,10.368
			c-0.149,5.909,4.48,10.795,10.368,10.965c7.552,0.192,14.955,0.512,22.123,0.917c0.192,0.021,0.405,0.021,0.597,0.021
			c5.611,0,10.325-4.395,10.667-10.048C311.627,433.216,307.147,428.181,301.259,427.84z"/>
	</g>
</g>
<g>
	<g>
		<path d="M232.971,426.88c-7.765,0.213-15.36,0.533-22.741,0.981c-5.888,0.341-10.389,5.376-10.027,11.264
			c0.341,5.675,5.013,10.048,10.645,10.048c0.213,0,0.405,0,0.64-0.021c7.168-0.405,14.571-0.725,22.123-0.939
			c5.867-0.171,10.517-5.077,10.347-10.965C243.787,431.339,238.475,426.837,232.971,426.88z"/>
	</g>
</g>
<g>
	<g>
		<path d="M176.672,441.344c-0.811-5.845-6.059-9.984-12.011-9.152c-8.149,1.088-15.787,2.368-22.784,3.733
			c-5.803,1.131-9.557,6.741-8.405,12.523c1.003,5.077,5.461,8.597,10.432,8.597c0.683,0,1.387-0.064,2.091-0.149
			c6.635-1.323,13.845-2.496,21.547-3.541C173.387,452.544,177.461,447.168,176.672,441.344z"/>
	</g>
</g>
<g>
	<g>
		<path d="M369.568,435.84c-6.997-1.365-14.613-2.603-22.741-3.712c-5.952-0.747-11.243,3.307-12.011,9.131
			c-0.789,5.845,3.307,11.221,9.131,12.011c7.723,1.045,14.912,2.219,21.589,3.499c0.704,0.128,1.365,0.192,2.048,0.192
			c5.013,0,9.472-3.541,10.432-8.619C379.125,442.539,375.349,436.949,369.568,435.84z"/>
	</g>
</g>
<g>
	<g>
		<path d="M424.224,460.587L266.016,7.061c-0.064-0.192-0.213-0.299-0.277-0.469c-0.299-0.747-0.747-1.387-1.195-2.048
			c-0.341-0.512-0.661-1.024-1.088-1.451c-0.469-0.469-1.024-0.811-1.6-1.195c-0.597-0.405-1.173-0.832-1.856-1.109
			c-0.192-0.085-0.32-0.235-0.533-0.32c-0.469-0.171-0.917-0.107-1.387-0.192C257.376,0.128,256.715,0,255.989,0
			c-0.811,0-1.557,0.149-2.325,0.32c-0.405,0.085-0.811,0.021-1.237,0.171c-0.171,0.064-0.299,0.213-0.469,0.277
			c-0.747,0.299-1.365,0.747-2.027,1.195c-0.512,0.363-1.024,0.661-1.451,1.088c-0.469,0.469-0.789,1.003-1.173,1.557
			c-0.427,0.619-0.853,1.237-1.152,1.941c-0.064,0.171-0.213,0.299-0.277,0.491L87.669,460.587c-1.771,3.2-2.389,6.229-2.389,8.64
			c0,0.128,0.064,0.235,0.064,0.341c0.021,0.619,0.213,1.195,0.341,1.813c0.171,0.939,0.363,1.835,0.725,2.688
			c11.669,36.629,152.789,37.824,169.515,37.824c16.747,0,158.059-1.195,169.536-37.909c0.064-0.128,0.085-0.277,0.149-0.405
			c0.213-0.469,0.256-1.003,0.405-1.515c0.235-0.832,0.491-1.643,0.512-2.517c0.021-0.107,0.085-0.192,0.085-0.32
			c0-0.021,0-0.021,0-0.043C426.613,466.795,425.995,463.787,424.224,460.587z M255.947,490.539
			c-91.605,0.021-141.653-14.379-148.544-20.779c0.192-0.149,0.256-0.235,0.512-0.427c3.947-2.859,5.163-7.893,3.563-12.267
			L255.947,42.923l144.491,414.187c-1.579,4.245-0.427,9.088,3.307,11.989C393.867,477.163,344.352,490.539,255.947,490.539z"/>
	</g>
</g>
</svg>
