<?xml version="1.0" encoding="iso-8859-1"?>
<!-- Uploaded to: SVG Repo, www.svgrepo.com, Generator: SVG Repo Mixer Tools -->
<svg fill="currentColor" height="800px" width="800px" version="1.1" id="Layer_1" xmlns="http://www.w3.org/2000/svg" xmlns:xlink="http://www.w3.org/1999/xlink"
	 viewBox="0 0 512 512" xml:space="preserve">
<g>
	<g>
		<path d="M196.33,384.894c-0.928-6.466-6.925-10.952-13.394-10.028c-20.788,2.986-39.636,7.193-56.018,12.498
			c-6.217,2.014-9.623,8.686-7.609,14.903c1.621,5.005,6.262,8.189,11.254,8.189c1.208,0,2.437-0.187,3.649-0.58
			c15.104-4.893,32.63-8.791,52.089-11.587C192.768,397.359,197.259,391.363,196.33,384.894z"/>
	</g>
</g>
<g>
	<g>
		<path d="M385.089,387.37c-16.377-5.306-35.224-9.512-56.015-12.501c-6.467-0.932-12.466,3.56-13.395,10.029
			c-0.93,6.469,3.56,12.465,10.029,13.395c19.463,2.797,36.988,6.697,52.087,11.589c1.212,0.393,2.441,0.58,3.649,0.58
			c4.992,0,9.633-3.184,11.254-8.188C394.712,396.057,391.306,389.383,385.089,387.37z"/>
	</g>
</g>
<g>
	<g>
		<path d="M284.322,370.582c-18.592-0.954-38.023-0.955-56.63,0c-6.527,0.335-11.545,5.897-11.21,12.424
			c0.335,6.526,5.888,11.551,12.424,11.21c17.803-0.913,36.416-0.912,54.206,0c0.207,0.011,0.412,0.015,0.616,0.015
			c6.257,0,11.483-4.907,11.807-11.226C295.868,376.478,290.847,370.917,284.322,370.582z"/>
	</g>
</g>
<g>
	<g>
		<path d="M386.434,17.948C351.42,6.374,305.097,0,256,0s-95.421,6.374-130.437,17.948C75.469,34.506,64.955,55.975,64.955,71.069
			v369.861c0,15.094,10.515,36.563,60.61,53.122C160.58,505.626,206.903,512,256,512c49.097,0,95.42-6.374,130.435-17.947
			c50.094-16.558,60.61-38.028,60.61-53.122V71.069C447.044,55.975,436.528,34.506,386.434,17.948z M132.991,40.417
			C165.674,29.614,209.358,23.665,256,23.665c46.642,0,90.326,5.949,123.008,16.752c32.751,10.825,44.371,23.278,44.371,30.653
			s-11.62,19.827-44.371,30.653C346.326,112.525,302.64,118.474,256,118.474s-90.326-5.949-123.009-16.752
			C100.24,90.897,88.62,78.444,88.62,71.069S100.24,51.242,132.991,40.417z M423.382,406.076c-4.347-0.973-9.06,0.55-11.96,4.309
			c-3.99,5.175-3.03,12.605,2.145,16.596c4.477,3.451,9.815,8.675,9.815,13.95c-0.002,7.373-11.623,19.826-44.373,30.651
			C346.325,482.386,302.64,488.335,256,488.335s-90.326-5.949-123.008-16.752c-32.75-10.825-44.371-23.278-44.371-30.653
			c0-5.275,5.338-10.498,9.815-13.95c5.175-3.991,6.135-11.421,2.145-16.596c-2.9-3.759-7.613-5.282-11.96-4.309V107.103
			c8.885,5.953,20.867,11.773,36.945,17.087c35.015,11.574,81.339,17.948,130.435,17.948c49.097,0,95.42-6.374,130.435-17.948
			c16.078-5.314,28.06-11.134,36.945-17.087V406.076z"/>
	</g>
</g>
</svg>
