<?xml version="1.0" encoding="iso-8859-1"?>
<!-- Uploaded to: SVG Repo, www.svgrepo.com, Generator: SVG Repo Mixer Tools -->
<svg fill="currentColor" height="800px" width="800px" version="1.1" id="Layer_1" xmlns="http://www.w3.org/2000/svg" xmlns:xlink="http://www.w3.org/1999/xlink"
	 viewBox="0 0 512 512" xml:space="preserve">
<g>
	<g>
		<path d="M160,226.667c-5.888,0-10.667,4.779-10.667,10.667v24c0,5.888,4.779,10.667,10.667,10.667s10.667-4.779,10.667-10.667v-24
			C170.667,231.445,165.888,226.667,160,226.667z"/>
	</g>
</g>
<g>
	<g>
		<path d="M239.232,309.333h-22.848c-5.888,0-10.667,4.779-10.667,10.667s4.779,10.667,10.667,10.667h22.848
			c5.909,0,10.667-4.779,10.667-10.667S245.12,309.333,239.232,309.333z"/>
	</g>
</g>
<g>
	<g>
		<path d="M444.949,309.333h-22.848c-5.888,0-10.667,4.779-10.667,10.667s4.779,10.667,10.667,10.667h22.848
			c5.909,0,10.667-4.779,10.667-10.667S450.837,309.333,444.949,309.333z"/>
	</g>
</g>
<g>
	<g>
		<path d="M307.819,309.333h-22.848c-5.888,0-10.667,4.779-10.667,10.667s4.779,10.667,10.667,10.667h22.848
			c5.888,0,10.667-4.779,10.667-10.667S313.707,309.333,307.819,309.333z"/>
	</g>
</g>
<g>
	<g>
		<path d="M511.851,105.984c-0.043-0.619-0.213-1.195-0.363-1.813c-0.192-0.789-0.384-1.557-0.747-2.261
			c-0.085-0.171-0.085-0.363-0.171-0.512c-0.213-0.363-0.533-0.555-0.768-0.896c-0.491-0.661-0.96-1.28-1.579-1.813
			c-0.491-0.427-1.024-0.747-1.579-1.067c-0.597-0.341-1.173-0.683-1.835-0.917c-0.747-0.256-1.493-0.363-2.261-0.448
			C502.123,96.192,501.76,96,501.333,96H160c-0.192,0-0.363,0.107-0.555,0.107c-0.768,0.043-1.515,0.256-2.261,0.469
			c-0.64,0.171-1.28,0.341-1.856,0.619c-0.213,0.107-0.427,0.085-0.64,0.213L5.355,182.741c-0.427,0.256-0.683,0.64-1.067,0.939
			c-0.555,0.427-1.088,0.811-1.536,1.344c-0.512,0.555-0.875,1.173-1.237,1.835c-0.299,0.533-0.597,1.024-0.811,1.6
			c-0.256,0.789-0.384,1.557-0.469,2.389C0.192,191.253,0,191.595,0,192v213.333c0,0.192,0.107,0.341,0.107,0.533
			c0.043,0.789,0.256,1.536,0.469,2.304c0.171,0.619,0.32,1.237,0.597,1.813c0.107,0.213,0.085,0.448,0.213,0.64
			c0.171,0.299,0.491,0.405,0.683,0.661c0.725,1.045,1.6,1.92,2.667,2.645c0.405,0.277,0.747,0.576,1.173,0.789
			c1.429,0.768,3.008,1.28,4.757,1.28H352c1.771,0,3.349-0.533,4.821-1.28c0.149-0.085,0.32-0.043,0.448-0.128l149.333-85.333
			c0.384-0.213,0.597-0.555,0.939-0.811c0.64-0.469,1.259-0.939,1.771-1.557c0.405-0.469,0.704-0.981,1.024-1.515
			c0.384-0.64,0.725-1.259,0.981-1.984c0.213-0.619,0.299-1.259,0.384-1.92c0.064-0.491,0.299-0.939,0.299-1.472V106.667
			C512,106.432,511.872,106.219,511.851,105.984z M341.333,394.667H29.099c-1.728-2.944-4.651-4.608-7.765-5.035V202.667h320
			V394.667z M349.163,181.333H170.667v-16c0-5.888-4.779-10.667-10.667-10.667s-10.667,4.779-10.667,10.667v16H50.816
			l100.864-57.643c1.941,2.56,4.864,4.309,8.32,4.309c5.888,0,10.667-4.779,10.667-10.667h290.496L349.163,181.333z
			 M490.667,309.333c-5.845,0-10.581,4.715-10.645,10.56l-117.355,67.051v-56.277h13.717c5.888,0,10.667-4.779,10.667-10.667
			s-4.779-10.667-10.667-10.667h-13.717V198.165l128-73.152V309.333z"/>
	</g>
</g>
<g>
	<g>
		<path d="M78.251,366.72c-2.923-5.12-9.451-6.933-14.549-3.968l-16.363,9.344c-5.12,2.923-6.891,9.429-3.968,14.549
			c1.984,3.456,5.568,5.376,9.28,5.376c1.792,0,3.605-0.448,5.269-1.408l16.363-9.344C79.403,378.347,81.173,371.84,78.251,366.72z"
			/>
	</g>
</g>
<g>
	<g>
		<path d="M127.296,338.688c-2.923-5.12-9.451-6.933-14.549-3.968l-16.363,9.344c-5.12,2.923-6.891,9.429-3.968,14.549
			c1.984,3.456,5.568,5.376,9.28,5.376c1.792,0,3.627-0.448,5.269-1.408l16.363-9.344
			C128.448,350.315,130.219,343.808,127.296,338.688z"/>
	</g>
</g>
<g>
	<g>
		<path d="M170.667,309.333c0-5.888-4.779-10.667-10.667-10.667s-10.667,4.779-10.667,10.667v4.459l-3.904,2.24
			c-5.12,2.923-6.891,9.429-3.968,14.549c1.984,3.456,5.568,5.376,9.28,5.376c1.792,0,3.627-0.448,5.269-1.408l6.805-3.883h7.851
			c5.888,0,10.667-4.779,10.667-10.667S176.555,309.333,170.667,309.333z"/>
	</g>
</g>
</svg>
