<?xml version="1.0" encoding="iso-8859-1"?>
<!-- Uploaded to: SVG Repo, www.svgrepo.com, Generator: SVG Repo Mixer Tools -->
<svg fill="currentColor" height="800px" width="800px" version="1.1" id="Layer_1" xmlns="http://www.w3.org/2000/svg" xmlns:xlink="http://www.w3.org/1999/xlink"
	 viewBox="0 0 512 512" xml:space="preserve">
<g>
	<g>
		<path d="M500.252,496.747L265.586,6.08c-0.064-0.128-0.213-0.171-0.299-0.299C263.516,2.389,260.06,0,255.964,0
			s-7.531,2.389-9.323,5.781c-0.064,0.128-0.235,0.171-0.299,0.299L11.676,496.747c-0.107,0.213-0.043,0.448-0.128,0.683
			c-0.469,1.173-0.683,2.368-0.725,3.627c-0.021,0.384-0.149,0.747-0.107,1.152c0.107,1.451,0.491,2.88,1.237,4.245
			c0.043,0.085,0.149,0.107,0.192,0.192c0.064,0.128,0.043,0.277,0.128,0.405c0.704,1.109,1.771,1.856,2.795,2.624
			c0.363,0.277,0.597,0.704,0.981,0.917c1.579,0.896,3.371,1.408,5.248,1.408h469.333c3.669,0,7.083-1.877,9.024-4.971
			S501.831,500.053,500.252,496.747z M461.49,490.667H39.623c-0.256-0.405-0.597-0.704-0.896-1.067L255.964,35.392L471.26,485.504
			C467.399,485.312,463.58,487.104,461.49,490.667z"/>
	</g>
</g>
<g>
	<g>
		<path d="M216.711,394.752c-2.837-5.184-9.301-7.083-14.464-4.267l-19.627,10.709c-5.163,2.816-7.083,9.301-4.245,14.464
			c1.92,3.563,5.568,5.568,9.344,5.568c1.728,0,3.477-0.405,5.12-1.301l19.627-10.709
			C217.628,406.4,219.548,399.915,216.711,394.752z"/>
	</g>
</g>
<g>
	<g>
		<path d="M98.908,459.008c-2.816-5.184-9.301-7.083-14.464-4.267l-19.627,10.709c-5.163,2.816-7.083,9.301-4.245,14.464
			c1.92,3.563,5.568,5.568,9.344,5.568c1.728,0,3.477-0.427,5.12-1.301l19.627-10.709
			C99.826,470.656,101.746,464.171,98.908,459.008z"/>
	</g>
</g>
<g>
	<g>
		<path d="M157.81,426.88c-2.837-5.184-9.28-7.061-14.464-4.267l-19.627,10.709c-5.163,2.816-7.083,9.301-4.245,14.464
			c1.92,3.563,5.568,5.568,9.344,5.568c1.728,0,3.477-0.427,5.12-1.301l19.627-10.709
			C158.727,438.528,160.647,432.043,157.81,426.88z"/>
	</g>
</g>
<g>
	<g>
		<path d="M270.535,369.365l-3.904-2.219v-4.48c0-5.888-4.779-10.667-10.667-10.667s-10.667,4.779-10.667,10.667v4.331l-3.776,2.069
			c-5.163,2.816-7.083,9.301-4.245,14.464c2.837,5.163,9.301,7.083,14.464,4.267l4.117-2.24l4.096,2.325
			c1.664,0.96,3.477,1.408,5.291,1.408c3.669,0,7.275-1.92,9.28-5.376C277.426,378.795,275.634,372.288,270.535,369.365z"/>
	</g>
</g>
<g>
	<g>
		<path d="M382.599,433.408l-18.667-10.667c-5.077-2.923-11.627-1.173-14.549,3.968c-2.923,5.099-1.152,11.627,3.968,14.549
			l18.667,10.667c1.664,0.96,3.477,1.408,5.291,1.408c3.669,0,7.275-1.92,9.259-5.376
			C389.49,442.859,387.719,436.331,382.599,433.408z"/>
	</g>
</g>
<g>
	<g>
		<path d="M438.62,465.429l-18.667-10.667c-5.077-2.923-11.648-1.173-14.549,3.968c-2.923,5.099-1.152,11.627,3.968,14.549
			l18.667,10.667c1.664,0.96,3.477,1.408,5.291,1.408c3.691,0,7.296-1.92,9.259-5.376C445.511,474.88,443.74,468.352,438.62,465.429
			z"/>
	</g>
</g>
<g>
	<g>
		<path d="M326.578,401.387L307.89,390.72c-5.077-2.923-11.605-1.173-14.571,3.968c-2.901,5.12-1.131,11.627,3.989,14.549
			l18.688,10.667c1.664,0.96,3.477,1.408,5.291,1.408c3.669,0,7.275-1.92,9.28-5.376
			C333.468,410.816,331.698,404.309,326.578,401.387z"/>
	</g>
</g>
<g>
	<g>
		<path d="M255.964,111.061c-5.888,0-10.667,4.779-10.667,10.667v20.075c0,5.888,4.779,10.667,10.667,10.667
			s10.667-4.779,10.667-10.667v-20.075C266.631,115.84,261.852,111.061,255.964,111.061z"/>
	</g>
</g>
<g>
	<g>
		<path d="M255.964,171.307c-5.888,0-10.667,4.779-10.667,10.667v20.075c0,5.888,4.779,10.667,10.667,10.667
			s10.667-4.779,10.667-10.667v-20.075C266.631,176.085,261.852,171.307,255.964,171.307z"/>
	</g>
</g>
<g>
	<g>
		<path d="M255.964,50.837c-5.888,0-10.667,4.779-10.667,10.667v20.075c0,5.888,4.779,10.667,10.667,10.667
			s10.667-4.779,10.667-10.667V61.504C266.631,55.616,261.852,50.837,255.964,50.837z"/>
	</g>
</g>
<g>
	<g>
		<path d="M255.964,231.531c-5.888,0-10.667,4.779-10.667,10.667v20.075c0,5.888,4.779,10.667,10.667,10.667
			s10.667-4.779,10.667-10.667v-20.075C266.631,236.309,261.852,231.531,255.964,231.531z"/>
	</g>
</g>
<g>
	<g>
		<path d="M255.964,291.776c-5.888,0-10.667,4.779-10.667,10.667v20.075c0,5.888,4.779,10.667,10.667,10.667
			s10.667-4.779,10.667-10.667v-20.075C266.631,296.555,261.852,291.776,255.964,291.776z"/>
	</g>
</g>
</svg>
