<svg id="elhfdMDZb5L1" xmlns="http://www.w3.org/2000/svg" xmlns:xlink="http://www.w3.org/1999/xlink" viewBox="0 0 512 512" shape-rendering="geometricPrecision" text-rendering="geometricPrecision"><g transform="matrix(.923843 0 0 0.901987 19.496192 11.245345)"><line x1="0" y1="-213.393141" x2="0" y2="213.393142" transform="translate(431.3703 337.34055)" fill="none" stroke="currentColor" stroke-width="24"/><line x1="0" y1="-213.393141" x2="0" y2="213.393142" transform="translate(80.437097 337.34055)" fill="none" stroke="currentColor" stroke-width="24"/><line x1="0" y1="-213.393141" x2="0" y2="213.393142" transform="matrix(-1 0 0 0.097957 256.000001 37.138525)" fill="none" stroke="currentColor" stroke-width="24"/><line x1="0" y1="-213.393141" x2="0" y2="213.393142" transform="matrix(-1 0 0 0.097957 255.999988 94.882079)" fill="none" stroke="currentColor" stroke-width="24"/><g transform="matrix(.58269-.812694 0.812694 0.58269-989.259224 537.908056)"><line x1="0" y1="-213.393141" x2="0" y2="213.393142" transform="matrix(-1 0 0 0.097957 827.159655 950.907626)" fill="none" stroke="currentColor" stroke-width="24"/><line x1="0" y1="-213.393141" x2="0" y2="213.393142" transform="matrix(-1 0 0 0.097957 827.159655 1008.71433)" fill="none" stroke="currentColor" stroke-width="24"/><line x1="0" y1="-213.393141" x2="0" y2="213.393142" transform="matrix(-1 0 0 0.097957 827.159655 1066.71433)" fill="none" stroke="currentColor" stroke-width="24"/><line x1="0" y1="-213.393141" x2="0" y2="213.393142" transform="matrix(-1 0 0 0.097957 827.159655 1126.155298)" fill="none" stroke="currentColor" stroke-width="24"/></g><line x1="0" y1="-213.393141" x2="0" y2="213.393142" transform="matrix(-1 0 0 0.097957 255.999988 152.887323)" fill="none" stroke="currentColor" stroke-width="24"/><line x1="0" y1="-213.393141" x2="0" y2="213.393142" transform="matrix(-1 0 0 0.097957 255.999988 268.767273)" fill="none" stroke="currentColor" stroke-width="24"/><line x1="0" y1="-213.393141" x2="0" y2="213.393142" transform="matrix(-1 0 0 0.097957 255.999988 210.960569)" fill="none" stroke="currentColor" stroke-width="24"/><line x1="0" y1="-213.393141" x2="0" y2="213.393142" transform="matrix(-1 0 0 0.097957 256.000001 328.611753)" fill="none" stroke="currentColor" stroke-width="24"/><line x1="0" y1="-213.393141" x2="0" y2="213.393142" transform="matrix(-1 0 0 0.097957 255.999988 388.05272)" fill="none" stroke="currentColor" stroke-width="24"/><g transform="matrix(.58269 0.812694-.812694 0.58269 536.661714-806.547605)"><line x1="0" y1="-213.393141" x2="0" y2="213.393142" transform="matrix(-1 0 0 0.097957 827.159655 950.907626)" fill="none" stroke="currentColor" stroke-width="24"/><line x1="0" y1="-213.393141" x2="0" y2="213.393142" transform="matrix(-1 0 0 0.097957 827.159655 1008.71433)" fill="none" stroke="currentColor" stroke-width="24"/><line x1="0" y1="-213.393141" x2="0" y2="213.393142" transform="matrix(-1 0 0 0.097957 827.159655 1066.71433)" fill="none" stroke="currentColor" stroke-width="24"/><line x1="0" y1="-213.393141" x2="0" y2="213.393142" transform="matrix(-1 0 0 0.097957 827.159655 1126.155298)" fill="none" stroke="currentColor" stroke-width="24"/></g><line x1="0" y1="-213.393141" x2="0" y2="213.393142" transform="matrix(0 1-.878093 0 256 539.147694)" fill="none" stroke="currentColor" stroke-width="24"/><line x1="0" y1="-213.393141" x2="0" y2="213.393142" transform="matrix(0 1-.878093 0 256.000001 135.983971)" fill="none" stroke="currentColor" stroke-width="24"/><line x1="0" y1="-213.393141" x2="0" y2="213.393142" transform="matrix(.582669 0.81271-.410845 0.294554 175.08195 62.855701)" fill="none" stroke="currentColor" stroke-width="24"/><line x1="0" y1="-213.393141" x2="0" y2="213.393142" transform="matrix(.571598 0.820534-.11562 0.080543 100.207053 116.069349)" fill="none" stroke="currentColor" stroke-width="24"/><line x1="0" y1="-213.393141" x2="0" y2="213.393142" transform="matrix(.570951-.820984 0.112595 0.078304 412.387655 116.72042)" fill="none" stroke="currentColor" stroke-width="24"/><line x1="0" y1="-213.393141" x2="0" y2="213.393142" transform="matrix(.58269-.812694 0.411593 0.295107 336.727275 62.973704)" fill="none" stroke="currentColor" stroke-width="24"/><line x1="-8.324369" y1="0" x2="8.324369" y2="0" transform="translate(256 417.150781)" fill="none" stroke="currentColor" stroke-width="3"/></g></svg>
